<svg width="64" height="64" viewBox="0 0 64 64" fill="none" xmlns="http://www.w3.org/2000/svg">
<path d="M64 16V60H16V50H20V56H60V20H52V16H64Z" fill="#333333"/>
<path d="M56 28H52V32H56V28Z" fill="#333333"/>
<path d="M56 36H52V40H56V36Z" fill="#333333"/>
<path d="M56 44H52V48H56V44Z" fill="#333333"/>
<path d="M48 4V46H2V4H48ZM44 8H6V42H44V8Z" fill="#333333"/>
<path d="M8 23.232H12.36V27.6H13.912V23.232H17.872L18.552 22H8V23.232Z" fill="#333333"/>
<path d="M28.3666 25.12C29.0146 24.96 29.5026 24.376 29.5026 23.672V23.4C29.5026 22.624 28.8706 22 28.1026 22H19.3746L20.0546 23.232H27.8946V24.56H19.7106V27.6H21.2546V25.792H26.9666L27.8306 27.6H29.5426L28.3666 25.12Z" fill="#333333"/>
<path d="M41.6613 27.6L37.2613 24.744L41.5013 22H38.9733L35.9972 23.928L33.0212 22H30.4932L34.7332 24.744L30.3333 27.6H32.8533L35.9972 25.568L39.1413 27.6H41.6613Z" fill="#333333"/>
</svg>
