<svg width="64" height="64" viewBox="0 0 64 64" fill="none" xmlns="http://www.w3.org/2000/svg">
<path d="M52.48 52.48H21.76V62.72L14.9333 59.3067L8.10666 62.72V1.28H55.8933V59.3067H24.0355V55.8933H52.48V52.48ZM11.52 57.1971L14.9333 55.4904L18.3467 57.1971V52.48H11.52V57.1971ZM11.52 4.69333V49.0667H52.48V4.69333H11.52ZM33.1378 28.5867L33.8089 25.1733H47.9289L47.2577 28.5867H33.1378ZM16.0711 36.5511L16.629 33.1378H47.9289L47.371 36.5511H16.0711ZM16.0711 44.5156L16.629 41.1022H47.9289L47.371 44.5156H16.0711Z" fill="#333333"/>
<path d="M16 13.232H20.36V17.6H21.912V13.232H25.872L26.552 12H16V13.232Z" fill="#333333"/>
<path d="M36.3666 15.12C37.0146 14.96 37.5026 14.376 37.5026 13.672V13.4C37.5026 12.624 36.8706 12 36.1026 12H27.3746L28.0546 13.232H35.8946V14.56H27.7106V17.6H29.2546V15.792H34.9666L35.8306 17.6H37.5426L36.3666 15.12Z" fill="#333333"/>
<path d="M49.6612 17.6L45.2612 14.744L49.5012 12H46.9732L43.9972 13.928L41.0212 12H38.4932L42.7332 14.744L38.3332 17.6H40.8532L43.9972 15.568L47.1412 17.6H49.6612Z" fill="#333333"/>
</svg>
